
<svg width="256" height="256" viewBox="0 0 256 256" fill="none" xmlns="http://www.w3.org/2000/svg">
    <defs>
        <linearGradient id="grad1" x1="0%" y1="0%" x2="100%" y2="100%">
            <stop offset="0%" style="stop-color:#A0E9FF;stop-opacity:1" />
            <stop offset="100%" style="stop-color:#3A8DFF;stop-opacity:1" />
        </linearGradient>
        <linearGradient id="grad2" x1="0%" y1="0%" x2="100%" y2="100%">
            <stop offset="0%" style="stop-color:#FFFFFF;stop-opacity:1" />
            <stop offset="100%" style="stop-color:#E0EFFF;stop-opacity:1" />
        </linearGradient>
        <filter id="blur" x="-50%" y="-50%" width="200%" height="200%">
            <feGaussianBlur in="SourceGraphic" stdDeviation="5" />
        </filter>
    </defs>
    <circle cx="128" cy="128" r="120" fill="url(#grad1)" fill-opacity="0.1"/>
    <g filter="url(#blur)" opacity="0.6">
        <path d="M128 48 C 168 48, 208 88, 208 128 C 208 168, 168 208, 128 208 C 88 208, 48 168, 48 128 C 48 88, 88 48, 128 48 Z" fill="url(#grad1)"/>
    </g>
    <circle cx="128" cy="128" r="90" fill="url(#grad2)" fill-opacity="0.8"/>
    <path d="M 100,128 Q 128,100 156,128" stroke="#3A8DFF" stroke-width="6" fill="none" stroke-linecap="round"/>
    <path d="M 100,128 Q 128,156 156,128" stroke="#A0E9FF" stroke-width="4" fill="none" stroke-linecap="round"/>
    <circle cx="90" cy="110" r="8" fill="#3A8DFF"/>
    <circle cx="166" cy="110" r="8" fill="#3A8DFF"/>
    <circle cx="128" cy="160" r="10" fill="#A0E9FF" stroke="#FFFFFF" stroke-width="2"/>
</svg>
